# xmcd
#
# Track frame offsets: 
#        150
#        23633
#        42908
#        59205
#        78848
#        93333
#        113675
#        136498
#        160010
#        173300
#        190200
#        208310
#
# Disc length: 3101 seconds
#
# Revision: 0
# Processed by: cddbd v1.5.2PL0 Copyright (c) Steve Scherf et al.
# Submitted via: ExactAudioCopy v0.99pb5
#
DISCID=980c1b0c
DTITLE=Eddie Baytos and The Nervis Bros - Take Some Mambo Time
DYEAR=1991
DGENRE=Blues
TTITLE0=Blind Suspicion
TTITLE1=Painted Dream
TTITLE2=Don't Beat Yourself Up
TTITLE3=Come Together
TTITLE4=Do Sumpin'
TTITLE5=Lonely Man
TTITLE6=Post Man
TTITLE7=I Ain't Drunk
TTITLE8=Take Some Mambo Time
TTITLE9=Loiusanne
TTITLE10=Le Wanda and Le Rita
TTITLE11=Do Dumpin' ( Extended Zig Mix)
EXTD=
EXTT0=
EXTT1=
EXTT2=
EXTT3=
EXTT4=
EXTT5=
EXTT6=
EXTT7=
EXTT8=
EXTT9=
EXTT10=
EXTT11=
PLAYORDER=
